<mxfile host="app.diagrams.net" agent="Mozilla/5.0 (Windows NT 10.0; Win64; x64) AppleWebKit/537.36 (KHTML, like Gecko) Chrome/141.0.0.0 Safari/537.36" version="28.2.8">
  <diagram name="‫עמוד-1‬" id="5B8pylD--B-PF0SFwJM-">
    <mxGraphModel dx="707" dy="319" grid="1" gridSize="10" guides="1" tooltips="1" connect="1" arrows="1" fold="1" page="1" pageScale="1" pageWidth="850" pageHeight="1100" math="0" shadow="0">
      <root>
        <mxCell id="0" />
        <mxCell id="1" parent="0" />
        <mxCell id="hEcpX5AKB0PuUbz7U4Ij-1" value="Recursive Deep Copy Hardware Accelerator&lt;div&gt;&lt;br&gt;&lt;br&gt;&lt;br&gt;&lt;br&gt;&lt;br&gt;&lt;br&gt;&lt;br&gt;&lt;br&gt;&lt;br&gt;&lt;br&gt;&lt;/div&gt;" style="rounded=1;whiteSpace=wrap;html=1;" vertex="1" parent="1">
          <mxGeometry x="310" y="130" width="150" height="200" as="geometry" />
        </mxCell>
        <mxCell id="hEcpX5AKB0PuUbz7U4Ij-2" value="Hardware Acceleration Proposal FCA - Fast Copy Accelerator" style="text;html=1;whiteSpace=wrap;strokeColor=none;fillColor=none;align=center;verticalAlign=middle;rounded=0;" vertex="1" parent="1">
          <mxGeometry x="287.5" y="90" width="195" height="30" as="geometry" />
        </mxCell>
        <mxCell id="hEcpX5AKB0PuUbz7U4Ij-3" value="src_object_addr" style="endArrow=classic;html=1;rounded=0;entryX=-0.008;entryY=0.143;entryDx=0;entryDy=0;entryPerimeter=0;" edge="1" parent="1">
          <mxGeometry width="50" height="50" relative="1" as="geometry">
            <mxPoint x="161.2" y="161.4" as="sourcePoint" />
            <mxPoint x="309.99999999999994" y="160.00000000000003" as="targetPoint" />
          </mxGeometry>
        </mxCell>
        <mxCell id="hEcpX5AKB0PuUbz7U4Ij-4" value="target_object_addr" style="endArrow=classic;html=1;rounded=0;entryX=-0.005;entryY=0.343;entryDx=0;entryDy=0;entryPerimeter=0;exitX=1.004;exitY=0.143;exitDx=0;exitDy=0;exitPerimeter=0;" edge="1" parent="1" source="hEcpX5AKB0PuUbz7U4Ij-1">
          <mxGeometry width="50" height="50" relative="1" as="geometry">
            <mxPoint x="460" y="161.4" as="sourcePoint" />
            <mxPoint x="609.2499999999999" y="160.00000000000003" as="targetPoint" />
            <Array as="points">
              <mxPoint x="610" y="159" />
            </Array>
          </mxGeometry>
        </mxCell>
        <mxCell id="hEcpX5AKB0PuUbz7U4Ij-5" value="Object Decoder" style="rounded=1;whiteSpace=wrap;html=1;" vertex="1" parent="1">
          <mxGeometry x="350" y="190" width="70" height="40" as="geometry" />
        </mxCell>
        <mxCell id="hEcpX5AKB0PuUbz7U4Ij-6" value="Memory Copy Unit" style="rounded=1;whiteSpace=wrap;html=1;" vertex="1" parent="1">
          <mxGeometry x="340" y="250" width="80" height="50" as="geometry" />
        </mxCell>
        <mxCell id="hEcpX5AKB0PuUbz7U4Ij-8" value="object_descriptor" style="endArrow=classic;html=1;rounded=0;entryX=-0.005;entryY=0.343;entryDx=0;entryDy=0;entryPerimeter=0;" edge="1" parent="1">
          <mxGeometry width="50" height="50" relative="1" as="geometry">
            <mxPoint x="161" y="190" as="sourcePoint" />
            <mxPoint x="310" y="189" as="targetPoint" />
          </mxGeometry>
        </mxCell>
        <mxCell id="hEcpX5AKB0PuUbz7U4Ij-10" value="done" style="endArrow=classic;html=1;rounded=0;entryX=-0.005;entryY=0.343;entryDx=0;entryDy=0;entryPerimeter=0;exitX=1.004;exitY=0.143;exitDx=0;exitDy=0;exitPerimeter=0;" edge="1" parent="1">
          <mxGeometry width="50" height="50" relative="1" as="geometry">
            <mxPoint x="460" y="190" as="sourcePoint" />
            <mxPoint x="608.2499999999999" y="191.00000000000003" as="targetPoint" />
            <Array as="points" />
          </mxGeometry>
        </mxCell>
        <mxCell id="hEcpX5AKB0PuUbz7U4Ij-11" value="Memory" style="rounded=1;whiteSpace=wrap;html=1;" vertex="1" parent="1">
          <mxGeometry x="600" y="237.5" width="110" height="75" as="geometry" />
        </mxCell>
        <mxCell id="hEcpX5AKB0PuUbz7U4Ij-12" value="" style="endArrow=classic;html=1;rounded=0;entryX=0;entryY=0.25;entryDx=0;entryDy=0;exitX=1.003;exitY=0.144;exitDx=0;exitDy=0;exitPerimeter=0;" edge="1" parent="1" source="hEcpX5AKB0PuUbz7U4Ij-6" target="hEcpX5AKB0PuUbz7U4Ij-11">
          <mxGeometry width="50" height="50" relative="1" as="geometry">
            <mxPoint x="425" y="250" as="sourcePoint" />
            <mxPoint x="538.6399999999999" y="239.24" as="targetPoint" />
          </mxGeometry>
        </mxCell>
        <mxCell id="hEcpX5AKB0PuUbz7U4Ij-14" value="" style="endArrow=classic;html=1;rounded=0;entryX=0.007;entryY=0.416;entryDx=0;entryDy=0;entryPerimeter=0;exitX=0.99;exitY=0.372;exitDx=0;exitDy=0;exitPerimeter=0;" edge="1" parent="1" source="hEcpX5AKB0PuUbz7U4Ij-6" target="hEcpX5AKB0PuUbz7U4Ij-11">
          <mxGeometry width="50" height="50" relative="1" as="geometry">
            <mxPoint x="420" y="269.66" as="sourcePoint" />
            <mxPoint x="520" y="269.66" as="targetPoint" />
          </mxGeometry>
        </mxCell>
        <mxCell id="hEcpX5AKB0PuUbz7U4Ij-15" value="" style="endArrow=classic;html=1;rounded=0;entryX=1.003;entryY=0.854;entryDx=0;entryDy=0;exitX=0;exitY=0.75;exitDx=0;exitDy=0;entryPerimeter=0;" edge="1" parent="1" source="hEcpX5AKB0PuUbz7U4Ij-11" target="hEcpX5AKB0PuUbz7U4Ij-6">
          <mxGeometry width="50" height="50" relative="1" as="geometry">
            <mxPoint x="320" y="230" as="sourcePoint" />
            <mxPoint x="370" y="180" as="targetPoint" />
          </mxGeometry>
        </mxCell>
        <mxCell id="hEcpX5AKB0PuUbz7U4Ij-16" value="" style="endArrow=classic;html=1;rounded=0;entryX=1;entryY=0.75;entryDx=0;entryDy=0;exitX=0.01;exitY=0.558;exitDx=0;exitDy=0;exitPerimeter=0;" edge="1" parent="1" source="hEcpX5AKB0PuUbz7U4Ij-11">
          <mxGeometry width="50" height="50" relative="1" as="geometry">
            <mxPoint x="520" y="280" as="sourcePoint" />
            <mxPoint x="420" y="280" as="targetPoint" />
          </mxGeometry>
        </mxCell>
        <mxCell id="hEcpX5AKB0PuUbz7U4Ij-18" value="start" style="endArrow=classic;html=1;rounded=0;entryX=-0.008;entryY=0.143;entryDx=0;entryDy=0;entryPerimeter=0;" edge="1" parent="1">
          <mxGeometry width="50" height="50" relative="1" as="geometry">
            <mxPoint x="160" y="220" as="sourcePoint" />
            <mxPoint x="309.99999999999994" y="220.00000000000003" as="targetPoint" />
          </mxGeometry>
        </mxCell>
        <mxCell id="hEcpX5AKB0PuUbz7U4Ij-19" value="(memory bus / DMA interface)" style="text;html=1;whiteSpace=wrap;strokeColor=none;fillColor=none;align=center;verticalAlign=middle;rounded=0;" vertex="1" parent="1">
          <mxGeometry x="470" y="300" width="90" height="30" as="geometry" />
        </mxCell>
      </root>
    </mxGraphModel>
  </diagram>
</mxfile>
